<svg xmlns="http://www.w3.org/2000/svg" width="100%" heigth="100%" viewBox="0 0 19 19.01"><defs><style>.cls-1{fill:#ebc712;fill-rule:evenodd;}</style></defs><title>Ресурс 1</title><g id="Слой_2" data-name="Слой 2"><g id="Группа_1_копия_2" data-name="Группа 1 копия 2"><g id="Фигура_23" data-name="Фигура 23"><path class="cls-1" d="M8.26,4.14A4,4,0,0,0,4.12,0,4,4,0,0,0,0,4.14a3.92,3.92,0,0,0,4.12,4A3.92,3.92,0,0,0,8.26,4.14Zm-6.06,0A1.94,1.94,0,1,1,6,4.14a1.93,1.93,0,1,1-3.85,0ZM15,.23h-.46A.67.67,0,0,0,14,.54L3.35,17.44a.68.68,0,0,0,.57,1h.43a.67.67,0,0,0,.57-.31L15.6,1.28A.68.68,0,0,0,15,.23Zm-.23,10.46a4,4,0,0,0-4.17,4.2A4,4,0,0,0,14.81,19,4,4,0,0,0,19,14.88,4.06,4.06,0,0,0,14.81,10.68Zm0,6.37a2,2,0,0,1-2-2.17,2,2,0,1,1,3.93,0A2,2,0,0,1,14.81,17.06Z"/></g></g></g></svg>