<svg xmlns="http://www.w3.org/2000/svg" viewBox="0 0 27 17"><defs><style>.cls-1{fill:#ebc712;fill-rule:evenodd;}</style></defs><title>Ресурс 2</title><g id="Слой_2" data-name="Слой 2"><g id="Группа_1_копия_2" data-name="Группа 1 копия 2"><g id="Фигура_22" data-name="Фигура 22"><path class="cls-1" d="M26.13,7.73H18.58V.9a.88.88,0,0,0-.87-.9H9.29a.88.88,0,0,0-.87.9V4.77H.87a.88.88,0,0,0-.87.9V16.1a.88.88,0,0,0,.87.9H26.13a.88.88,0,0,0,.87-.9V8.63A.88.88,0,0,0,26.13,7.73ZM8.42,15.2H1.73V6.57H8.42Zm8.42,0H10.15V1.8h6.69Zm8.42,0H18.58V9.53h6.69Z"/></g></g></g></svg>