<svg xmlns="http://www.w3.org/2000/svg" viewBox="0 0 20.01 15"><defs><style>.cls-1{fill:#ebc712;fill-rule:evenodd;}</style></defs><title>Ресурс 4</title><g id="Слой_2" data-name="Слой 2"><g id="Группа_1_копия_2" data-name="Группа 1 копия 2"><g id="Фигура_21" data-name="Фигура 21"><path class="cls-1" d="M.81,1.67H16.92a.82.82,0,0,0,.81-.83A.82.82,0,0,0,16.92,0H.81A.82.82,0,0,0,0,.83.82.82,0,0,0,.81,1.67ZM.81,6H14.52a.83.83,0,0,0,0-1.67H.81A.83.83,0,0,0,.81,6Zm18.4,2.79H.81a.83.83,0,0,0,0,1.67h18.4a.83.83,0,0,0,0-1.67ZM7.1,13.33H.81A.83.83,0,0,0,.81,15H7.1a.83.83,0,0,0,0-1.67Z"/></g></g></g></svg>