<svg xmlns="http://www.w3.org/2000/svg" viewBox="0 0 26 25"><defs><style>.cls-1{fill:#333;fill-rule:evenodd;}</style></defs><title>Ресурс 6</title><g id="Слой_2" data-name="Слой 2"><g id="Группа_1_копия_2" data-name="Группа 1 копия 2"><g id="Фигура_3" data-name="Фигура 3"><path class="cls-1" d="M25.65,7.06,13.42.12a.79.79,0,0,0-.85,0L.35,7.06A.76.76,0,0,0,0,7.7V24.23A.77.77,0,0,0,.77,25H25.23a.77.77,0,0,0,.77-.77V7.7A.76.76,0,0,0,25.65,7.06ZM20.78,23.47H5.22V21.58H20.78Zm0-3.42H5.22V18.13H20.78Zm0-3.46H5.22v-2H20.78Zm0-3.49H5.22V11.23H20.78Zm3.67,10.37H22.33v-13a.77.77,0,0,0-.77-.77H4.44a.77.77,0,0,0-.77.77v13H1.55V8.12L13,1.69,24.45,8.12Z"/></g></g></g></svg>