<svg xmlns="http://www.w3.org/2000/svg" viewBox="0 0 24 21"><defs><style>.cls-1{fill:#333;fill-rule:evenodd;}</style></defs><title>Ресурс 7</title><g id="Слой_2" data-name="Слой 2"><g id="Группа_1_копия_2" data-name="Группа 1 копия 2"><g id="Фигура_2" data-name="Фигура 2"><path class="cls-1" d="M17,0a6.13,6.13,0,0,0-5,2.53A6.13,6.13,0,0,0,7,0,7,7,0,0,0,0,7.12c0,3,1.48,5.95,4.4,8.77a30.87,30.87,0,0,0,7.2,5,.88.88,0,0,0,.79,0,30.85,30.85,0,0,0,7.2-5c2.92-2.82,4.4-5.77,4.4-8.77A7,7,0,0,0,17,0Zm1.34,14.65A28.79,28.79,0,0,1,12,19.16a28.78,28.78,0,0,1-6.37-4.51c-2.57-2.49-3.88-5-3.88-7.54A5.15,5.15,0,0,1,7,1.72c1.88,0,3.12.78,4.28,2.7a.88.88,0,0,0,1.2.3.87.87,0,0,0,.3-.3c1.17-1.92,2.41-2.7,4.28-2.7a5.15,5.15,0,0,1,5.22,5.4C22.25,9.63,20.95,12.17,18.37,14.65Z"/></g></g></g></svg>