<svg xmlns="http://www.w3.org/2000/svg" viewBox="0 0 32 23"><defs><style>.cls-1{fill:#333;fill-rule:evenodd;}</style></defs><title>Ресурс 8</title><g id="Слой_2" data-name="Слой 2"><g id="Группа_1_копия_2" data-name="Группа 1 копия 2"><g id="Фигура_4" data-name="Фигура 4"><path class="cls-1" d="M31.9,10.33,26.82,1.55a.74.74,0,0,0-.7-.5H17.66a1.83,1.83,0,0,0-3.31,0H5.9a.74.74,0,0,0-.67.43l0,.05L.1,10.33a.76.76,0,0,0-.07.59C0,11,0,11,0,11.11A5.6,5.6,0,0,0,5.83,17a5.6,5.6,0,0,0,5.81-5.91c0-.06,0-.13,0-.19a.77.77,0,0,0-.07-.6L7.06,2.57h7.22a1.87,1.87,0,0,0,1,1V21.48H9.52a.76.76,0,0,0,0,1.51h13a.76.76,0,0,0,0-1.51H16.74V3.6a1.87,1.87,0,0,0,1-1h7.22l-4.49,7.76a.77.77,0,0,0-.07.6c0,.06,0,.12,0,.19A5.6,5.6,0,0,0,26.17,17,5.6,5.6,0,0,0,32,11.11c0-.06,0-.13,0-.19A.77.77,0,0,0,31.9,10.33ZM5.83,15.5a4,4,0,0,1-4.31-4h8.62A4,4,0,0,1,5.83,15.5ZM9.64,10H2L5.83,3.42ZM16,2.58a.7.7,0,1,1,.69-.7A.7.7,0,0,1,16,2.58Zm10.17.84L30,10H22.36Zm0,12.09a4,4,0,0,1-4.31-4h8.62A4,4,0,0,1,26.17,15.5Z"/></g></g></g></svg>