<svg xmlns="http://www.w3.org/2000/svg" viewBox="0 0 28 27"><defs><style>.cls-1{fill:#333;fill-rule:evenodd;}</style></defs><title>Ресурс 9</title><g id="Слой_2" data-name="Слой 2"><g id="Группа_1_копия_2" data-name="Группа 1 копия 2"><g id="Фигура_1" data-name="Фигура 1"><path class="cls-1" d="M27.94,4.86V4.8a.62.62,0,0,0-.11-.24.64.64,0,0,0-.23-.18h0v0a.36.36,0,0,0-.19-.12h-.08l-.1,0H6.65L5.77.63A.82.82,0,0,0,5,0H.82A.83.83,0,0,0,0,.83a.83.83,0,0,0,.82.83H4.34l3.8,15.44a2.7,2.7,0,0,0-1.06.65,2.94,2.94,0,0,0-.84,2.08,2.86,2.86,0,0,0,.91,2.09L7.08,22a3,3,0,0,0,2.05,5,2.85,2.85,0,0,0,2.06-.87A3,3,0,0,0,12,24.06a2.7,2.7,0,0,0-.34-1.28h10a2.69,2.69,0,0,0-.33,1.28A2.92,2.92,0,0,0,24.25,27a2.85,2.85,0,0,0,2.05-.86,3,3,0,0,0-2-5H9.13a1.28,1.28,0,0,1,0-2.55H24.06a.82.82,0,0,0,.79-.63L28,5.26a.25.25,0,0,0,0-.1.26.26,0,0,0,0-.1A.38.38,0,0,0,27.94,4.86ZM23.35,23.16a1.25,1.25,0,0,1,.89-.38A1.28,1.28,0,0,1,25.14,25a1.24,1.24,0,0,1-.89.38,1.28,1.28,0,0,1-.89-2.18Zm-15.11,0a1.25,1.25,0,0,1,.89-.38A1.28,1.28,0,0,1,10,25a1.24,1.24,0,0,1-.9.38,1.28,1.28,0,0,1-.89-2.18Zm15.18-6.27H9.77l-2.71-11H26.13Z"/></g></g></g></svg>