<svg xmlns="http://www.w3.org/2000/svg" viewBox="0 0 11 14"><defs><style>.cls-1{fill:#fb2539;fill-rule:evenodd;}</style></defs><title>Ресурс 11</title><g id="Слой_2" data-name="Слой 2"><g id="Группа_1_копия_2" data-name="Группа 1 копия 2"><g id="Фигура_24" data-name="Фигура 24"><path class="cls-1" d="M9.85,4.71H3.1V2.57A1.37,1.37,0,0,1,4.44,1.16H6.77A1.37,1.37,0,0,1,8.1,2.57V2.7a.55.55,0,1,0,1.1,0V2.57A2.52,2.52,0,0,0,6.77,0H4.44A2.52,2.52,0,0,0,2,2.57V4.73H1.15A1.19,1.19,0,0,0,0,5.94v6.85A1.19,1.19,0,0,0,1.15,14h8.7A1.19,1.19,0,0,0,11,12.79V5.94A1.19,1.19,0,0,0,9.85,4.71Zm.06,8.08h0a.05.05,0,0,1,0,0H1.16a.05.05,0,0,1,0,0V5.94a.05.05,0,0,1,0,0h8.7a.05.05,0,0,1,0,0ZM5.51,8.13a1.31,1.31,0,0,0,0,2.62,1.31,1.31,0,0,0,0-2.62Z"/></g></g></g></svg>