<svg xmlns="http://www.w3.org/2000/svg" viewBox="0 0 21 21"><defs><style>.cls-1{fill:#ebc712;fill-rule:evenodd;}</style></defs><title>Ресурс 3</title><g id="Слой_2" data-name="Слой 2"><g id="Группа_1_копия_2" data-name="Группа 1 копия 2"><g id="Фигура_20" data-name="Фигура 20"><path class="cls-1" d="M10.5,0A10.5,10.5,0,1,0,21,10.5,10.51,10.51,0,0,0,10.5,0Zm0,19.3a8.8,8.8,0,1,1,8.8-8.8A8.81,8.81,0,0,1,10.5,19.3Zm0-5.37a1.24,1.24,0,1,0,1.24,1.24A1.28,1.28,0,0,0,10.5,13.93Zm-.1-9.15A3.12,3.12,0,0,0,7.57,6.51a.85.85,0,0,0-.08.71.81.81,0,0,0,.44.48.86.86,0,0,0,.42.11.81.81,0,0,0,.75-.49,1.39,1.39,0,0,1,1.25-.76A1.44,1.44,0,0,1,11.77,8c0,.55-.42.93-.95,1.41l-.1.1a3.29,3.29,0,0,0-1.26,2.33v.46a.88.88,0,0,0,1.77,0v-.51c0-.36.35-.7.8-1.11a3.79,3.79,0,0,0,1.5-2.73A3.18,3.18,0,0,0,10.4,4.79Z"/></g></g></g></svg>