<svg xmlns="http://www.w3.org/2000/svg" viewBox="0 0 42 42"><defs><style>.cls-1{isolation:isolate;}.cls-2,.cls-3{fill:#3e6eb1;}.cls-3{fill-rule:evenodd;}</style></defs><title>Ресурс 5</title><g id="Слой_2" data-name="Слой 2"><g id="Эллипс_1" data-name="Эллипс 1" class="cls-1"><g id="Эллипс_1-2" data-name="Эллипс 1"><path class="cls-2" d="M21,1A20,20,0,1,1,1,21,20,20,0,0,1,21,1m0-1A21,21,0,1,0,42,21,21,21,0,0,0,21,0Z"/></g></g><g id="Фигура_15" data-name="Фигура 15" class="cls-1"><g id="Фигура_15-2" data-name="Фигура 15"><path class="cls-3" d="M22.57,15.64c0-.68.6-.93,1.27-.93a5.71,5.71,0,0,1,1.39.21l.43-2.6A10.62,10.62,0,0,0,22.57,12a3,3,0,0,0-2.67,1.28,4.64,4.64,0,0,0-.55,2.63v1.71H17.62v2.54h1.72V29h3.23V20.17h2.56l.19-2.54H22.57Z"/></g></g></g></svg>