<svg xmlns="http://www.w3.org/2000/svg" viewBox="0 0 42 42"><defs><style>.cls-1{isolation:isolate;}.cls-2,.cls-3{fill:#dc4e41;}.cls-3{fill-rule:evenodd;}</style></defs><title>Ресурс 6</title><g id="Слой_2" data-name="Слой 2"><g id="Эллипс_1_копия" data-name="Эллипс 1 копия" class="cls-1"><g id="Эллипс_1_копия-2" data-name="Эллипс 1 копия"><path class="cls-2" d="M21,1A20,20,0,1,1,1,21,20,20,0,0,1,21,1m0-1A21,21,0,1,0,42,21,21,21,0,0,0,21,0Z"/></g></g><g id="Фигура_17" data-name="Фигура 17" class="cls-1"><g id="Фигура_17-2" data-name="Фигура 17"><path class="cls-3" d="M19,20c0,.8,0,1.59,0,2.39,1.33,0,2.67,0,4,0-.59,3-4.61,3.92-6.73,2a4.49,4.49,0,0,1,.19-7,4.61,4.61,0,0,1,5.44.14,25,25,0,0,0,1.77-1.84A7.08,7.08,0,0,0,19,14a7,7,0,0,0-2.53,13.53,6.89,6.89,0,0,0,8-2.12A8,8,0,0,0,25.66,20C23.43,20,21.2,20,19,20Zm13,0c0-.67,0-1.33,0-2H30q0,1,0,2H28v2l2,0c0,.67,0,1.33,0,2h2q0-1,0-2l2,0V20Z"/></g></g></g></svg>