<svg xmlns="http://www.w3.org/2000/svg" viewBox="0 0 42 42"><defs><style>.cls-1{isolation:isolate;}.cls-2,.cls-3{fill:#00acec;}.cls-3{fill-rule:evenodd;}</style></defs><title>Ресурс 2</title><g id="Слой_2" data-name="Слой 2"><g id="Эллипс_1_копия_2" data-name="Эллипс 1 копия 2" class="cls-1"><g id="Эллипс_1_копия_2-2" data-name="Эллипс 1 копия 2"><path class="cls-2" d="M21,1A20,20,0,1,1,1,21,20,20,0,0,1,21,1m0-1A21,21,0,1,0,42,21,21,21,0,0,0,21,0Z"/></g></g><g id="Фигура_9" data-name="Фигура 9" class="cls-1"><g id="Фигура_9-2" data-name="Фигура 9"><path class="cls-3" d="M30,16.55a7.33,7.33,0,0,1-2,.52,3.33,3.33,0,0,0,1.53-1.82,7.24,7.24,0,0,1-2.22.8,3.59,3.59,0,0,0-2.55-1,3.39,3.39,0,0,0-3.49,3.28,3.07,3.07,0,0,0,.09.75,10.12,10.12,0,0,1-7.19-3.43,3.13,3.13,0,0,0-.47,1.65A3.24,3.24,0,0,0,15.27,20a3.65,3.65,0,0,1-1.58-.41v0a3.34,3.34,0,0,0,2.8,3.22,3.6,3.6,0,0,1-.92.12,3.67,3.67,0,0,1-.66-.06,3.47,3.47,0,0,0,3.26,2.28,7.28,7.28,0,0,1-4.33,1.41,7.43,7.43,0,0,1-.83,0A10.34,10.34,0,0,0,18.35,28a9.56,9.56,0,0,0,9.92-9.34c0-.14,0-.28,0-.42A6.86,6.86,0,0,0,30,16.55Z"/></g></g></g></svg>