<svg xmlns="http://www.w3.org/2000/svg" viewBox="0 0 42 42"><defs><style>.cls-1{isolation:isolate;}.cls-2,.cls-3{fill:#e35358;}.cls-3{fill-rule:evenodd;}</style></defs><title>Ресурс 4</title><g id="Слой_2" data-name="Слой 2"><g id="Эллипс_1_копия_3" data-name="Эллипс 1 копия 3" class="cls-1"><g id="Эллипс_1_копия_3-2" data-name="Эллипс 1 копия 3"><path class="cls-2" d="M21,1A20,20,0,1,1,1,21,20,20,0,0,1,21,1m0-1A21,21,0,1,0,42,21,21,21,0,0,0,21,0Z"/></g></g><g id="Фигура_16" data-name="Фигура 16" class="cls-1"><g id="Фигура_16-2" data-name="Фигура 16"><path class="cls-3" d="M21.5,14c-8.35,0-8.5.74-8.5,6.5s.15,6.5,8.5,6.5,8.5-.74,8.5-6.5S29.85,14,21.5,14Zm2.72,6.78-3.82,1.77a.39.39,0,0,1-.61-.38V18.83a.4.4,0,0,1,.61-.39l3.82,1.77C24.56,20.37,24.56,20.63,24.22,20.78Z"/></g></g></g></svg>